<svg width="32" height="32" viewBox="0 0 32 32" fill="none" xmlns="http://www.w3.org/2000/svg">
<rect width="32" height="32" rx="4" fill="#E3F4FF"/>
<rect width="32" height="32" rx="4" fill="url(#paint0_linear)"/>
<g clip-path="url(#clip0)">
<path d="M8.2829 27.5935L8.28289 27.5935L8.28369 27.5953C8.35391 27.7533 8.46063 27.8784 8.60332 27.9676C8.74341 28.0552 8.89446 28.1 9.05475 28.1H21.9454C22.118 28.1 22.2719 28.0588 22.4022 27.9719C22.5323 27.8851 22.6322 27.7575 22.7046 27.5955C22.7773 27.433 22.8046 27.2726 22.7794 27.1168C22.7544 26.9617 22.6786 26.8199 22.5593 26.6915L18.6001 21.987V13.85H18.9923C19.2363 13.85 19.443 13.766 19.6039 13.5961C19.7627 13.4285 19.8423 13.2239 19.8423 12.9883C19.8423 12.7526 19.7626 12.5508 19.602 12.3902C19.4407 12.2289 19.2346 12.15 18.9923 12.15H17.7501C17.5212 12.15 17.3208 12.2303 17.1539 12.3883C16.9841 12.5493 16.9001 12.7559 16.9001 13V22.3047C16.9001 22.5296 16.9699 22.7253 17.1118 22.8856L20.0442 26.4H10.9559L13.8884 22.8856C14.0303 22.7253 14.1001 22.5296 14.1001 22.3047V13C14.1001 12.7559 14.0161 12.5493 13.8462 12.3883C13.6793 12.2303 13.479 12.15 13.2501 12.15H12.0079C11.7655 12.15 11.5594 12.2289 11.3981 12.3902C11.2375 12.5508 11.1579 12.7526 11.1579 12.9883C11.1579 13.2239 11.2374 13.4285 11.3962 13.5961C11.5572 13.766 11.7638 13.85 12.0079 13.85H12.4001V21.987L8.44079 26.6915C8.32177 26.8196 8.24525 26.961 8.21799 27.1154C8.19061 27.2706 8.21441 27.4308 8.2829 27.5935ZM14.7501 11.6C15.1838 11.6 15.5605 11.4403 15.8755 11.1254C16.1908 10.8101 16.3501 10.4293 16.3501 9.98828C16.3501 9.54721 16.1907 9.16982 15.8745 8.86195C15.5594 8.55511 15.183 8.4 14.7501 8.4C14.5337 8.4 14.3254 8.44168 14.1257 8.52488C13.9271 8.60762 13.7557 8.7201 13.6129 8.86288C13.4702 9.00566 13.3577 9.17703 13.2749 9.3756C13.1917 9.57529 13.1501 9.78367 13.1501 10C13.1501 10.0993 13.1583 10.1952 13.1751 10.2874C13.1919 10.3797 13.2171 10.4682 13.251 10.5528C13.2844 10.6362 13.3259 10.7191 13.3753 10.8014C13.4249 10.8842 13.4791 10.9594 13.5381 11.0268C13.5957 11.0926 13.6574 11.1544 13.7233 11.212C13.7907 11.2709 13.8659 11.3252 13.9486 11.3748C14.0309 11.4242 14.1138 11.4657 14.1973 11.4991C14.2819 11.5329 14.3704 11.5582 14.4626 11.5749C14.5549 11.5917 14.6508 11.6 14.7501 11.6ZM19.6368 10.3734C20.39 10.3734 21.0365 10.105 21.5708 9.57071C22.1051 9.03641 22.3735 8.38991 22.3735 7.63672C22.3735 6.88353 22.1051 6.23703 21.5708 5.70273C21.0365 5.16842 20.39 4.9 19.6368 4.9C18.8836 4.9 18.2371 5.16842 17.7028 5.70273C17.1685 6.23703 16.9001 6.88353 16.9001 7.63672C16.9001 8.38991 17.1685 9.03641 17.7028 9.57071C18.2371 10.105 18.8836 10.3734 19.6368 10.3734ZM19.6251 6.6C19.7694 6.6 19.9055 6.6252 20.0341 6.67523C20.1625 6.72515 20.2717 6.79585 20.3629 6.88712C20.4542 6.97838 20.5249 7.08757 20.5748 7.21593C20.6249 7.34459 20.6501 7.4807 20.6501 7.625C20.6501 7.91128 20.551 8.15138 20.3512 8.35116C20.1514 8.55095 19.9113 8.65 19.6251 8.65C19.4395 8.65 19.2696 8.60386 19.1134 8.51156C18.9561 8.41858 18.8315 8.29398 18.7385 8.13663C18.6462 7.98044 18.6001 7.81056 18.6001 7.625C18.6001 7.33872 18.6991 7.09862 18.8989 6.89884C19.0987 6.69905 19.3388 6.6 19.6251 6.6Z" fill="#3E81FF" stroke="#3E81FF" stroke-width="0.2"/>
</g>
<defs>
<linearGradient id="paint0_linear" x1="0" y1="0" x2="32" y2="32" gradientUnits="userSpaceOnUse">
<stop offset="0.239583" stop-color="white" stop-opacity="0.15"/>
<stop offset="1" stop-color="white" stop-opacity="0"/>
</linearGradient>
<clipPath id="clip0">
<rect width="15" height="24" fill="white" transform="translate(8 4)"/>
</clipPath>
</defs>
</svg>
