<svg width="100" height="66" viewBox="0 0 100 66" fill="none" xmlns="http://www.w3.org/2000/svg">
<g clip-path="url(#clip0)">
<path d="M3.04622 43.2621H0.180704V23.9975H3.04622V43.2621Z" fill="#212127"/>
<path d="M8.87137 23.9975L12.6781 36.9356V23.9975H15.5541V43.2621H12.4689L8.50533 30.926V43.2621H5.63982V23.9975H8.87137Z" fill="#212127"/>
<path d="M21.3792 23.9975L25.186 36.9356V23.9975H28.0619V43.2621H24.9768L21.0132 30.926V43.2621H18.1477V23.9975H21.3792Z" fill="#212127"/>
<path d="M35.1316 23.7651C36.4005 23.7651 37.4777 24.2158 38.3631 25.117C39.2556 26.0183 39.7018 27.1062 39.7018 28.3806V38.8895C39.7018 40.171 39.2556 41.2624 38.3631 42.1636C37.4707 43.0579 36.3935 43.505 35.1316 43.505C33.8697 43.505 32.796 43.0543 31.9105 42.1531C31.032 41.2518 30.5928 40.164 30.5928 38.8895V28.3806C30.5928 27.0991 31.039 26.0113 31.9314 25.117C32.8239 24.2158 33.8906 23.7651 35.1316 23.7651ZM36.7003 28.3172C36.7003 27.8525 36.54 27.4617 36.2192 27.1449C35.9055 26.821 35.5186 26.6591 35.0584 26.6591C34.6052 26.6591 34.2148 26.821 33.8871 27.1449C33.5664 27.4617 33.406 27.8525 33.406 28.3172V38.8684C33.406 39.3261 33.5664 39.7168 33.8871 40.0407C34.2148 40.3646 34.6052 40.5266 35.0584 40.5266C35.5186 40.5266 35.9055 40.3646 36.2192 40.0407C36.54 39.7168 36.7003 39.3261 36.7003 38.8684V28.3172Z" fill="#212127"/>
<path d="M45.0772 43.2621L41.6784 23.9975H44.6903L47.0747 38.9951L49.4905 23.9975H52.5025L49.0408 43.2621H45.0772Z" fill="#212127"/>
<path d="M55.5771 38.8367L54.8765 43.2621H51.8854L55.117 23.9975H59.0806L62.2703 43.2621H59.2584L58.5786 38.8367H55.5771ZM57.0831 28.4123L56.0164 36.0062H58.1498L57.0831 28.4123Z" fill="#212127"/>
<path d="M65.0626 26.902H62.0089V23.9975H70.9819V26.902H67.9386V43.2621H65.0626V26.902Z" fill="#212127"/>
<path d="M76.1691 43.2621H73.3036V23.9975H76.1691V43.2621Z" fill="#212127"/>
<path d="M81.9942 43.2621L78.5954 23.9975H81.6073L83.9917 38.9951L86.4076 23.9975H89.4195L85.9579 43.2621H81.9942Z" fill="#212127"/>
<path d="M91.8562 43.2621V23.9975H100.034V26.902H94.7217V32.1723H98.6017V35.0873H94.7217V40.3576H100.034V43.2621H91.8562Z" fill="#212127"/>
<path d="M2.83868 65.2802H-0.0490723V45.8661H4.10339L6.80144 59.788L9.39409 45.8661H13.3885V65.2802H10.4902V53.0825L7.98183 65.2802H5.65266L2.83868 53.1144V65.2802Z" fill="#212127"/>
<path d="M18.9005 65.2802H16.0127V45.8661H18.9005V65.2802Z" fill="#212127"/>
<path d="M24.7709 45.8661L28.6071 58.9046V45.8661H31.5054V65.2802H28.3964L24.402 52.8483V65.2802H21.5142V45.8661H24.7709Z" fill="#212127"/>
<path d="M43.2251 60.6395C43.2251 61.9168 42.7789 63.0095 41.8866 63.9178C40.9943 64.826 39.9228 65.2802 38.6721 65.2802H34.1192V45.8661H38.6721C39.9368 45.8661 41.0118 46.3202 41.8971 47.2285C42.7824 48.1367 43.2251 49.2259 43.2251 50.4961V60.6395ZM37.0069 62.3851H38.7564C39.2202 62.3851 39.6101 62.2183 39.9263 61.8848C40.2425 61.5442 40.4006 61.1469 40.4006 60.6927V50.5387C40.4006 50.0774 40.239 49.6836 39.9157 49.3572C39.5925 49.0237 39.2061 48.857 38.7564 48.857H37.0069V62.3851Z" fill="#212127"/>
<path d="M55.1871 60.4586C55.2082 61.8139 54.8604 62.9705 54.1437 63.9284C53.673 64.5812 53.009 65.0389 52.1518 65.3014C51.6881 65.4505 51.1506 65.525 50.5393 65.525C49.4011 65.525 48.4596 65.2411 47.7148 64.6735C47.0965 64.2051 46.6047 63.5736 46.2393 62.7789C45.8739 61.9771 45.6632 61.0546 45.6069 60.0115L48.3577 59.82C48.4842 60.9482 48.7828 61.7642 49.2535 62.268C49.5978 62.6512 49.9948 62.8321 50.4445 62.8108C51.0768 62.7895 51.5827 62.4773 51.9621 61.8742C52.1588 61.5691 52.2572 61.1398 52.2572 60.5863C52.2572 59.7703 51.8954 58.9649 51.1717 58.1702C50.5955 57.6238 49.7348 56.8042 48.5895 55.7115C47.627 54.7748 46.9489 53.934 46.5555 53.1889C46.1269 52.3516 45.9126 51.4434 45.9126 50.4642C45.9126 48.6973 46.4993 47.3597 47.6726 46.4515C48.3963 45.9051 49.2957 45.6319 50.3707 45.6319C51.4035 45.6319 52.2888 45.8661 53.0266 46.3344C53.5957 46.6963 54.0559 47.2036 54.4072 47.8564C54.7585 48.5022 54.9728 49.2472 55.0501 50.0916L52.2677 50.6025C52.1905 49.8078 51.9656 49.1905 51.5932 48.7505C51.3262 48.4241 50.9433 48.2609 50.4445 48.2609C49.9175 48.2609 49.5135 48.4986 49.2324 48.974C49.0076 49.3572 48.8952 49.8326 48.8952 50.4003C48.8952 51.2873 49.2746 52.192 50.0334 53.1144C50.3215 53.4621 50.7501 53.8737 51.3192 54.3491C51.9937 54.9168 52.4399 55.3141 52.6577 55.5412C53.3673 56.265 53.9189 56.9781 54.3124 57.6806C54.495 58.007 54.6426 58.3121 54.755 58.5959C55.029 59.2842 55.1731 59.9051 55.1871 60.4586Z" fill="#212127"/>
<path d="M59.2236 51.1134C59.2236 49.2756 59.7155 47.8706 60.6991 46.8985C61.5423 46.047 62.6559 45.6213 64.0401 45.6213C65.3048 45.6213 66.3833 46.1002 67.2756 47.0582C68.175 48.0161 68.6247 49.1372 68.6247 50.4216C68.6247 51.8975 68.3331 53.2492 67.7499 54.4768C67.4337 55.158 66.6925 56.3288 65.5261 57.9892C65.2099 58.4434 64.7392 59.1494 64.1139 60.1073L63.5869 60.9056C63.2496 61.4236 62.9967 61.8316 62.8281 62.1296C62.7438 62.2786 62.7016 62.3673 62.7016 62.3957L68.3928 62.4064V65.2802H59.1815V62.5979C59.1815 62.5341 59.3958 62.1793 59.8244 61.5336C60.0141 61.2285 60.2319 60.895 60.4778 60.5331L61.2261 59.4261C61.6688 58.8159 62.3608 57.8402 63.3023 56.4991C64.1876 55.2432 64.8516 54.1043 65.2943 53.0825C65.6526 52.2452 65.8318 51.3866 65.8318 50.5067C65.8318 49.9178 65.6666 49.4175 65.3364 49.006C64.9781 48.5731 64.5179 48.3567 63.9558 48.3567C63.1478 48.3567 62.5751 48.8286 62.2379 49.7723C62.1255 50.0774 62.0692 50.4464 62.0692 50.8793V51.6243H59.2236V51.1134Z" fill="#212127"/>
<path d="M80.2073 60.895C80.2073 62.1864 79.7576 63.2827 78.8583 64.1839C77.9589 65.0779 76.8804 65.525 75.6227 65.525C74.3439 65.525 73.2584 65.0744 72.3661 64.1732C71.4738 63.265 71.0276 62.1722 71.0276 60.895V50.2619C71.0276 48.9705 71.4773 47.8742 72.3766 46.973C73.276 46.0719 74.358 45.6213 75.6227 45.6213C76.9015 45.6213 77.9835 46.0754 78.8688 46.9837C79.7611 47.8919 80.2073 48.9847 80.2073 50.2619V60.895ZM77.2036 50.1981C77.2036 49.7368 77.0385 49.343 76.7083 49.0166C76.3851 48.6831 75.9916 48.5164 75.5279 48.5164C75.0712 48.5164 74.6812 48.6831 74.358 49.0166C74.0348 49.343 73.8732 49.7368 73.8732 50.1981V60.8524C73.8732 61.3136 74.0348 61.711 74.358 62.0445C74.6812 62.3709 75.0712 62.5341 75.5279 62.5341C75.9916 62.5341 76.3851 62.3709 76.7083 62.0445C77.0385 61.711 77.2036 61.3136 77.2036 60.8524V50.1981Z" fill="#212127"/>
<path d="M82.5575 51.1134C82.5575 49.2756 83.0494 47.8706 84.033 46.8985C84.8762 46.047 85.9898 45.6213 87.374 45.6213C88.6387 45.6213 89.7172 46.1002 90.6095 47.0582C91.5089 48.0161 91.9585 49.1372 91.9585 50.4216C91.9585 51.8975 91.667 53.2492 91.0838 54.4768C90.7676 55.158 90.0264 56.3288 88.86 57.9892C88.5438 58.4434 88.0731 59.1494 87.4477 60.1073L86.9208 60.9056C86.5835 61.4236 86.3306 61.8316 86.162 62.1296C86.0776 62.2786 86.0355 62.3673 86.0355 62.3957L91.7267 62.4064V65.2802H82.5154V62.5979C82.5154 62.5341 82.7297 62.1793 83.1583 61.5336C83.348 61.2285 83.5658 60.895 83.8117 60.5331L84.56 59.4261C85.0026 58.8159 85.6947 57.8402 86.6362 56.4991C87.5215 55.2432 88.1855 54.1043 88.6281 53.0825C88.9865 52.2452 89.1656 51.3866 89.1656 50.5067C89.1656 49.9178 89.0005 49.4175 88.6703 49.006C88.312 48.5731 87.8517 48.3567 87.2897 48.3567C86.4816 48.3567 85.909 48.8286 85.5718 49.7723C85.4593 50.0774 85.4031 50.4464 85.4031 50.8793V51.6243H82.5575V51.1134Z" fill="#212127"/>
<path d="M96.4061 65.2802V50.3364H93.961V48.2928C94.6496 48.2148 95.3065 47.9522 95.9318 47.5052C96.5642 47.0511 97.0209 46.5047 97.3019 45.8661H99.3255V65.2802H96.4061Z" fill="#212127"/>
<path d="M34.3338 4.84821L34.4763 5.80753C33.5264 6.32077 32.5899 6.8492 31.6669 7.39282C32.7213 7.57349 33.7662 7.77335 34.8016 7.99239L34.9441 8.95172C33.4528 8.61436 31.9392 8.31617 30.4035 8.05715C30.3489 7.78374 30.2943 7.50794 30.2373 7.23213C31.5783 6.41191 32.9438 5.61726 34.3338 4.84821Z" fill="#212127"/>
<path d="M36.0628 10.5347C35.7113 7.98605 35.3606 5.43665 35.0107 2.88644C35.6899 2.79051 36.3715 2.70417 37.0531 2.62263C37.5616 2.55635 38.0785 2.62666 38.5515 2.82648C38.9431 2.99576 39.2575 3.3073 39.4326 3.69947C39.545 3.95432 39.6125 4.22702 39.6321 4.5053C39.6617 4.73239 39.6454 4.96318 39.5842 5.18373C39.523 5.40427 39.4181 5.60998 39.2759 5.7884C39.1554 5.93083 39.0086 6.04814 38.8436 6.13376C39.1571 6.2099 39.4369 6.38868 39.6392 6.6422C39.8076 6.85485 39.932 7.09953 40.0049 7.36169C40.0528 7.53571 40.0838 7.71403 40.0975 7.89412C40.1466 8.326 40.0802 8.76327 39.9052 9.16043C39.7685 9.44332 39.5605 9.68486 39.302 9.86073C39.0306 10.0603 38.7136 10.1873 38.3806 10.2301C37.6064 10.3244 36.8338 10.4259 36.0628 10.5347ZM36.8607 5.82197L37.4116 5.75722C37.5891 5.75183 37.7602 5.68868 37.8992 5.57718C38.0383 5.46569 38.138 5.31181 38.1834 5.13846C38.2232 4.97695 38.2321 4.80927 38.2096 4.6444C38.2059 4.51013 38.1731 4.37829 38.1137 4.25815C38.0542 4.138 37.9694 4.03245 37.8652 3.94889C37.6655 3.81262 37.421 3.76016 37.1837 3.8026L36.6185 3.86975C36.7008 4.51889 36.7815 5.16963 36.8607 5.82197ZM37.2715 9.21319L37.8011 9.15083C37.9984 9.13804 38.1863 9.061 38.3365 8.93129C38.4868 8.80157 38.5914 8.62616 38.6347 8.43134C38.6807 8.27597 38.6944 8.11267 38.675 7.95168C38.6699 7.61134 38.5356 7.28598 38.2998 7.04271C38.194 6.95801 38.0713 6.89743 37.9401 6.86514C37.809 6.83285 37.6724 6.82961 37.5399 6.85565L36.9937 6.9204L37.2715 9.21319Z" fill="#212127"/>
<path d="M41.3704 9.96408C41.182 7.40588 40.9936 4.83888 40.8052 2.26309C42.1097 2.16716 43.4135 2.09841 44.7164 2.05684L44.7521 3.22002C43.9161 3.2472 43.081 3.28558 42.2467 3.33514C42.2878 4.03865 42.329 4.74295 42.3702 5.44805C42.9638 5.41128 43.5591 5.3817 44.156 5.35932C44.1726 5.74784 44.1869 6.13637 44.2011 6.5225C43.6122 6.54648 43.0256 6.57526 42.4366 6.60884C42.4762 7.31234 42.5174 8.01585 42.5601 8.71935C43.3517 8.67139 44.137 8.63541 44.9159 8.61143L44.9515 9.77461C43.7578 9.81298 42.5641 9.87614 41.3704 9.96408Z" fill="#212127"/>
<path d="M50.036 7.85578C50.043 8.35767 49.8663 8.8445 49.5397 9.22282C49.3093 9.48843 49.0018 9.67389 48.661 9.75285C48.432 9.81092 48.1965 9.83834 47.9604 9.83439C47.5263 9.84943 47.0978 9.73246 46.7303 9.49863C46.454 9.30766 46.2288 9.05059 46.0749 8.75036C45.9015 8.41057 45.7996 8.03822 45.7756 7.65673C46.1841 7.62315 46.5902 7.59197 47.001 7.56559C47.0222 7.92543 47.1627 8.26759 47.4 8.53691C47.4669 8.60911 47.5484 8.66595 47.6389 8.70361C47.7295 8.74126 47.827 8.75883 47.9248 8.75515C48.0579 8.75352 48.1886 8.71928 48.3056 8.65536C48.4227 8.59144 48.5227 8.49976 48.5969 8.38821C48.6936 8.23624 48.7417 8.05789 48.7346 7.87737C48.725 7.69309 48.6778 7.5128 48.5961 7.34775C48.5144 7.18269 48.3998 7.03642 48.2597 6.91805C48.0032 6.6974 47.6185 6.37123 47.096 5.93713C46.7327 5.65516 46.4126 5.32059 46.1461 4.94423C45.947 4.61969 45.8387 4.24673 45.8326 3.86499C45.8101 3.54889 45.8729 3.23255 46.0142 2.9496C46.1556 2.66665 46.3702 2.42768 46.6353 2.25812C47.0203 2.0251 47.4644 1.91089 47.9129 1.92955C48.3494 1.91894 48.7814 2.01957 49.1692 2.22215C49.4368 2.36645 49.6608 2.58106 49.8175 2.84331C49.9792 3.11671 50.0744 3.42492 50.0954 3.74268C49.66 3.79864 49.227 3.857 48.7964 3.91776C48.783 3.6422 48.6746 3.38004 48.49 3.17668C48.419 3.10786 48.3347 3.05465 48.2423 3.02039C48.1499 2.98613 48.0515 2.97156 47.9533 2.97761C47.8423 2.97168 47.7316 2.99458 47.6318 3.04412C47.532 3.09366 47.4465 3.1682 47.3834 3.26062C47.2746 3.42836 47.2206 3.6263 47.229 3.82662C47.2581 4.24167 47.4464 4.62888 47.7538 4.90586C47.9357 5.08712 48.1319 5.25315 48.3404 5.40231C48.5503 5.55163 48.7524 5.71172 48.946 5.88197C49.2283 6.13429 49.4738 6.42579 49.675 6.74776C49.7471 6.86611 49.8105 6.98954 49.865 7.11711C49.9701 7.34939 50.0282 7.60052 50.036 7.85578Z" fill="#212127"/>
<path d="M52.546 3.3229C52.0711 3.29572 51.5914 3.27253 51.1069 3.25335C51.1212 2.86482 51.1378 2.47869 51.1521 2.09016C52.5769 2.14772 54.0018 2.23966 55.4267 2.36597L55.3269 3.52675C54.852 3.48358 54.377 3.44521 53.902 3.41164L53.439 9.95184C53.021 9.92066 52.6007 9.89428 52.1827 9.87029L52.546 3.3229Z" fill="#212127"/>
<path d="M60.219 2.55057C60.5918 2.60333 60.9647 2.65849 61.3351 2.71605C59.6411 5.30143 58.0674 7.92998 56.6141 10.6017C56.2745 10.5633 55.9372 10.5274 55.5977 10.4938C57.0209 7.80767 58.5614 5.15993 60.219 2.55057Z" fill="#212127"/>
<path d="M61.9146 5.04501C63.3015 5.84445 64.6543 6.67107 65.9731 7.52487C65.9161 7.79828 65.8568 8.07408 65.7974 8.34749C64.2585 8.57613 62.7418 8.84554 61.2473 9.15573L61.4041 8.1964C62.4395 7.99494 63.4852 7.81267 64.5411 7.64958C63.6276 7.08998 62.6999 6.54556 61.7579 6.01633L61.9146 5.04501Z" fill="#212127"/>
<path d="M55.9444 1.0089C44.813 -0.0239655 33.5883 0.996744 22.8186 4.02118L25.6826 14.4347C35.2573 11.7514 45.2369 10.8573 55.1298 11.7965" stroke="#212127" stroke-width="2.29075" stroke-linecap="round" stroke-linejoin="round"/>
<path d="M24.1769 9.09355C21.8829 9.7331 19.611 10.4742 17.3613 11.3168C18.8606 12.5431 20.3108 13.7998 21.7119 15.0869C21.3557 16.9784 21.0557 18.8659 20.8119 20.7494C23.9143 19.5931 27.0872 18.6398 30.311 17.8954C29.9785 16.4276 29.6461 15.1013 29.3136 13.6336" stroke="#212127" stroke-width="2.44694" stroke-linecap="round" stroke-linejoin="round"/>
<path d="M30.0427 17.7128C28.6415 16.5496 27.2262 15.4056 25.7158 14.3239" stroke="#212127" stroke-width="2.53544" stroke-linecap="round" stroke-linejoin="round"/>
<path d="M39.1287 1.00381C50.2617 -0.0190901 61.4861 1.01054 72.2545 4.04247L69.3834 14.4559C59.8105 11.7622 49.8305 10.86 39.9361 11.7938" stroke="#212127" stroke-width="2.29075" stroke-linecap="round" stroke-linejoin="round"/>
<path d="M70.8818 9.26353C73.1711 9.90628 75.3535 10.6474 77.5953 11.4844C76.0359 12.6819 74.5263 13.9187 73.0666 15.1946C73.4276 17.0844 73.7308 18.9703 73.9762 20.8522C70.8787 19.7057 67.7113 18.762 64.4937 18.027L65.4839 13.6189" stroke="#212127" stroke-width="2.44694" stroke-linecap="round" stroke-linejoin="round"/>
<path d="M64.9377 17.8926C66.3357 16.7303 67.7899 15.6063 69.3002 14.5206" stroke="#212127" stroke-width="2.53544" stroke-linecap="round" stroke-linejoin="round"/>
</g>
<defs>
<clipPath id="clip0">
<rect width="100" height="65.5556" fill="white"/>
</clipPath>
</defs>
</svg>
