<svg width="32" height="32" viewBox="0 0 32 32" fill="none" xmlns="http://www.w3.org/2000/svg">
<rect width="32" height="32" rx="4" fill="#E3F4FF"/>
<rect width="32" height="32" rx="4" fill="url(#paint0_linear)"/>
<path d="M8.57143 14H12V22H8.57143C8.41988 22 8.27453 21.9352 8.16737 21.8198C8.0602 21.7044 8 21.5478 8 21.3846V14.6154C8 14.4522 8.0602 14.2956 8.16737 14.1802C8.27453 14.0648 8.41988 14 8.57143 14V14Z" stroke="#3E81FF" stroke-width="2" stroke-linecap="round" stroke-linejoin="round"/>
<path d="M12 14.087L15.2027 8C15.5391 8 15.8723 8.06298 16.1831 8.18534C16.494 8.3077 16.7764 8.48704 17.0144 8.71313C17.2523 8.93922 17.441 9.20763 17.5698 9.50303C17.6985 9.79843 17.7648 10.115 17.7648 10.4348V12.2609H22.7189C22.9006 12.2609 23.0802 12.2976 23.2457 12.3686C23.4113 12.4395 23.5591 12.5432 23.6793 12.6726C23.7995 12.802 23.8894 12.9542 23.943 13.1192C23.9966 13.2841 24.0126 13.458 23.9901 13.6293L23.0293 20.9336C22.9906 21.228 22.84 21.4989 22.606 21.6953C22.3719 21.8916 22.0704 22 21.7581 22H12" stroke="#3E81FF" stroke-width="2" stroke-linecap="round" stroke-linejoin="round"/>
<defs>
<linearGradient id="paint0_linear" x1="0" y1="0" x2="32" y2="32" gradientUnits="userSpaceOnUse">
<stop offset="0.239583" stop-color="white" stop-opacity="0.15"/>
<stop offset="1" stop-color="white" stop-opacity="0"/>
</linearGradient>
</defs>
</svg>
